HIERARCHY
ROOT joint_Root
{
	OFFSET 0.0 0.0 0.0
	CHANNELS 6 Xposition Yposition Zposition Zrotation Xrotation Yrotation 
	JOINT Hips
	{
		OFFSET 4.5925 91.4895 -427.239
		CHANNELS 6 Xposition Yposition Zposition Zrotation Xrotation Yrotation 
		JOINT Spine
		{
			OFFSET 15.7357 0.0 0.0
			CHANNELS 6 Xposition Yposition Zposition Zrotation Xrotation Yrotation 
			JOINT Chest
			{
				OFFSET 8.98455 -0.406207 0.0
				CHANNELS 6 Xposition Yposition Zposition Zrotation Xrotation Yrotation 
				JOINT Neck
				{
					OFFSET 16.3773 0.0 0.0
					CHANNELS 6 Xposition Yposition Zposition Zrotation Xrotation Yrotation 
					JOINT Head
					{
						OFFSET 6.45672 0.0 0.0
						CHANNELS 6 Xposition Yposition Zposition Zrotation Xrotation Yrotation 
						End Site
						{
							OFFSET 0.0 0.0 0.0
						}
					}
				}
				JOINT Shoulder_L
				{
					OFFSET 12.9942 -0.242716 4.98039
					CHANNELS 6 Xposition Yposition Zposition Zrotation Xrotation Yrotation 
					JOINT UpperArm_L
					{
						OFFSET 5.34809 0.0 0.0
						CHANNELS 6 Xposition Yposition Zposition Zrotation Xrotation Yrotation 
						JOINT LowerArm_L
						{
							OFFSET 24.3286 1.87007e-05 0.0
							CHANNELS 6 Xposition Yposition Zposition Zrotation Xrotation Yrotation 
							JOINT Hand_L
							{
								OFFSET 22.2916 0.0 0.0
								CHANNELS 6 Xposition Yposition Zposition Zrotation Xrotation Yrotation 
								End Site
								{
									OFFSET 0.0 0.0 0.0
								}
							}
						}
					}
				}
				JOINT Shoulder_R
				{
					OFFSET 12.9945 -0.242716 -4.98039
					CHANNELS 6 Xposition Yposition Zposition Zrotation Xrotation Yrotation 
					JOINT UpperArm_R
					{
						OFFSET -5.34813 0.0 0.0
						CHANNELS 6 Xposition Yposition Zposition Zrotation Xrotation Yrotation 
						JOINT LowerArm_R
						{
							OFFSET -24.3289 0.000322201 0.0
							CHANNELS 6 Xposition Yposition Zposition Zrotation Xrotation Yrotation 
							JOINT Hand_R
							{
								OFFSET -22.2915 -0.000108084 0.0
								CHANNELS 6 Xposition Yposition Zposition Zrotation Xrotation Yrotation 
								End Site
								{
									OFFSET 0.0 0.0 0.0
								}
							}
						}
					}
				}
			}
		}
		JOINT UpperLeg_L
		{
			OFFSET -2.19248 -6.46944 0.0
			CHANNELS 6 Xposition Yposition Zposition Zrotation Xrotation Yrotation 
			JOINT LowerLeg_L
			{
				OFFSET 39.0811 0.0 -1.23785e-05
				CHANNELS 6 Xposition Yposition Zposition Zrotation Xrotation Yrotation 
				JOINT Foot_L
				{
					OFFSET 40.9854 0.0 -1.26872e-05
					CHANNELS 6 Xposition Yposition Zposition Zrotation Xrotation Yrotation 
					JOINT Toes_L
					{
						OFFSET 11.7543 0.0 0.0
						CHANNELS 6 Xposition Yposition Zposition Zrotation Xrotation Yrotation 
						End Site
						{
							OFFSET 0.0 0.0 0.0
						}
					}
				}
			}
		}
		JOINT UpperLeg_R
		{
			OFFSET -2.19251 6.46944 0.0
			CHANNELS 6 Xposition Yposition Zposition Zrotation Xrotation Yrotation 
			JOINT LowerLeg_R
			{
				OFFSET -39.0811 -0.00228153 -0.0401928
				CHANNELS 6 Xposition Yposition Zposition Zrotation Xrotation Yrotation 
				JOINT Foot_R
				{
					OFFSET -40.9854 0.0 0.0
					CHANNELS 6 Xposition Yposition Zposition Zrotation Xrotation Yrotation 
					JOINT Toes_R
					{
						OFFSET -11.7543 0.0 0.0
						CHANNELS 6 Xposition Yposition Zposition Zrotation Xrotation Yrotation 
						End Site
						{
							OFFSET 0.0 0.0 0.0
						}
					}
				}
			}
		}
	}
}
MOTION
Frames:	4
Frame Time:	0.0333333
0.000000 0.000000 0.000000 0.000000 0.000000 -0.000000 -3.548080 82.533300 -1.757750 87.442600 2.046390 11.646500 15.735700 0.000005 -0.000001 80.712600 82.303300 -80.783300 8.984550 -0.406207 -0.000000 7.429190 -2.474660 0.019518 16.377300 -0.000001 -0.000001 -0.960473 -3.673800 0.738997 6.456720 -0.000001 -0.000000 -1.805100 -2.308180 0.654399 12.994200 -0.242716 4.980390 -91.634700 5.264630 -72.722800 5.348090 -0.000007 -0.000001 -65.172900 26.482600 -10.611600 24.328600 0.000019 0.000005 11.215200 22.608600 -27.284900 22.291600 -0.000001 0.000005 16.161600 5.246790 1.510230 12.994500 -0.242716 -4.980390 88.008500 9.990410 -78.666100 -5.348130 -0.000001 -0.000004 -59.213600 23.032800 -9.159270 -24.328900 0.000322 -0.000009 -0.138556 -0.216206 -32.412500 -22.291500 -0.000108 -0.000004 14.930900 5.347380 -1.282780 -2.192480 -6.469440 -0.000000 -169.453000 -10.526000 -15.414700 39.081100 -0.000007 -0.000012 -0.292341 0.158343 61.559300 40.985400 -0.000006 -0.000013 2.380580 11.667900 -84.560900 11.754300 -0.000000 0.000003 -0.000120 -0.001200 -16.623400 -2.192510 6.469440 -0.000001 -179.982000 15.280000 167.158000 -39.081100 -0.002282 -0.040193 0.080151 -0.043870 60.312900 -40.985400 0.000008 0.000006 8.988290 3.762270 -86.574900 -11.754300 -0.000006 -0.000006 -0.444157 -0.543780 -16.380200
0.000000 0.000000 0.000000 0.000000 0.000000 -0.000000 -3.799460 83.852800 -0.853903 86.785300 4.327980 12.119900 15.735700 0.000005 -0.000001 80.238000 82.924600 -80.790200 8.984550 -0.406207 -0.000000 6.172740 -2.384980 -0.974719 16.377300 -0.000001 -0.000001 1.002220 -4.104790 1.048480 6.456720 -0.000001 -0.000000 -0.028180 -3.313350 1.923030 12.994200 -0.242716 4.980390 -91.520800 4.682680 -71.984500 5.348090 -0.000007 -0.000001 -67.980900 22.827600 -9.402710 24.328600 0.000019 0.000005 8.826930 20.435900 -23.974400 22.291600 -0.000001 0.000005 17.469900 5.150170 3.936600 12.994500 -0.242716 -4.980390 88.005000 9.212290 -77.723900 -5.348130 -0.000001 -0.000004 -57.269100 19.918100 -10.978800 -24.328900 0.000322 -0.000009 0.753926 1.143760 -33.426800 -22.291500 -0.000108 -0.000004 9.787910 5.332530 -0.864684 -2.192480 -6.469440 -0.000000 -168.640000 -9.403800 -12.974500 39.081100 -0.000007 -0.000012 -0.245077 0.154533 57.767500 40.985400 -0.000006 -0.000013 2.465410 13.010500 -83.126200 11.754300 -0.000000 0.000003 -0.000130 -0.001289 -16.626700 -2.192510 6.469440 -0.000001 -179.748000 16.973300 170.635000 -39.081100 -0.002282 -0.040193 0.076480 -0.049575 55.912600 -40.985400 0.000008 0.000006 8.609370 3.504370 -85.014600 -11.754300 -0.000006 -0.000006 -0.534983 -0.657665 -16.488600
0.000000 0.000000 0.000000 0.000000 0.000000 -0.000000 -3.789490 86.177900 0.098431 86.652000 5.667430 11.950900 15.735700 0.000005 -0.000001 81.223200 83.946600 -82.473400 8.984550 -0.406207 -0.000000 4.182200 -1.805350 -2.431700 16.377300 -0.000001 -0.000001 3.880380 -4.374280 1.636450 6.456720 -0.000001 -0.000000 1.694030 -3.918860 3.440710 12.994200 -0.242716 4.980390 -91.428300 4.152140 -70.997100 5.348090 -0.000007 -0.000001 -69.254000 21.614800 -7.481600 24.328600 0.000019 0.000005 5.895820 15.359900 -21.297400 22.291600 -0.000001 0.000005 15.888100 5.148700 3.968150 12.994500 -0.242716 -4.980390 88.140600 7.685360 -76.354200 -5.348130 -0.000001 -0.000004 -52.045400 15.554700 -16.202700 -24.328900 0.000322 -0.000009 1.035940 1.371190 -37.111000 -22.291500 -0.000108 -0.000004 7.214090 5.344950 -1.225840 -2.192480 -6.469440 -0.000000 -168.643000 -8.915820 -9.045350 39.081100 -0.000007 -0.000012 -0.197418 0.163840 50.310900 40.985400 -0.000006 -0.000013 2.025040 13.772600 -79.936000 11.754300 -0.000000 0.000003 -0.000079 -0.000844 -16.610100 -2.192510 6.469440 -0.000001 -179.957000 17.803500 175.037000 -39.081100 -0.002282 -0.040193 0.058992 -0.049937 48.142400 -40.985400 0.000008 0.000006 8.010740 3.924140 -81.389500 -11.754300 -0.000006 -0.000006 -0.556444 -0.683788 -16.893100
0.000000 0.000000 0.000000 0.000000 0.000000 -0.000000 -3.350610 88.501800 0.798365 87.250900 6.235330 10.769400 15.735700 0.000005 -0.000001 81.430800 85.264400 -83.551000 8.984550 -0.406207 -0.000000 1.579540 -1.296110 -4.218740 16.377300 -0.000001 -0.000001 6.565640 -3.970140 2.138090 6.456720 -0.000001 -0.000000 3.590420 -4.097150 4.681710 12.994200 -0.242716 4.980390 -91.127300 3.032900 -69.598000 5.348090 -0.000007 -0.000001 -70.228200 20.257600 -4.503890 24.328600 0.000019 0.000005 6.654940 17.050400 -21.697100 22.291600 -0.000001 0.000005 11.890400 5.194020 2.859770 12.994500 -0.242716 -4.980390 88.611000 5.530900 -75.879100 -5.348130 -0.000001 -0.000004 -45.876700 6.385330 -24.104200 -24.328900 0.000322 -0.000009 1.110860 1.225750 -42.228300 -22.291500 -0.000108 -0.000004 8.250860 5.327880 -0.723797 -2.192480 -6.469440 -0.000000 -169.918000 -8.850410 -5.383160 39.081100 -0.000007 -0.000012 -0.150409 0.169697 41.552300 40.985400 -0.000006 -0.000013 1.427150 13.714800 -75.968500 11.754300 -0.000000 0.000003 -0.000064 -0.000701 -16.604700 -2.192510 6.469440 -0.000001 178.770000 19.184500 178.617000 -39.081100 -0.002282 -0.040193 0.038583 -0.042434 39.759100 -40.985400 0.000008 0.000006 7.458130 6.034560 -76.957400 -11.754300 -0.000006 -0.000006 -0.540861 -0.663872 -17.610300
